<svg id="uuid-acf3b4b1-bf13-4402-8f45-9c7b2eeccffa" width="50" height="66" xmlns="http://www.w3.org/2000/svg" xmlns:xlink="http://www.w3.org/1999/xlink" viewBox="0 0 334.44 505.69"><defs><style>.uuid-d946c397-e2d0-441d-84b7-28f9c38c02be{fill:none;}.uuid-ef00a4e1-668b-4000-aa62-765eb05c1061{clip-path:url(#uuid-5f554d3e-d4e5-4411-bf83-9d08aa364ee5);}.uuid-9b6e0d80-72f3-4bc3-a737-e3dac601da61{fill:#216778;}.uuid-c0ed2101-780a-427d-8866-a329285276b9{fill:url(#uuid-515721c8-486a-4bad-9488-aba60cf73060);}.uuid-9576f59d-d5a9-4e33-a3aa-2ead14d8b2c4{fill:url(#uuid-103192d2-0e5e-4f7e-bf80-90d856579aa8);}.uuid-f6a60cb6-dd8f-44cb-9de7-9e0daa0af60a{fill:url(#uuid-ee323c05-9b34-4d9d-a251-fd23bc15e285);}.uuid-2c9db22d-e1db-41e5-814f-0305be4514a8{fill:url(#uuid-5b9cad4a-9531-4111-af27-4e0907a19bd4);}</style><linearGradient id="uuid-515721c8-486a-4bad-9488-aba60cf73060" x1="55.43" y1="460.15" x2="220.97" y2="26.39" gradientUnits="userSpaceOnUse"><stop offset="0" stop-color="#2c6e7e"/><stop offset=".49" stop-color="#cfe3e1"/><stop offset=".62" stop-color="#cde2dd"/><stop offset=".74" stop-color="#c7dfd2"/><stop offset=".85" stop-color="#bddbc0"/><stop offset=".96" stop-color="#afd6a7"/><stop offset="1" stop-color="#aad49d"/></linearGradient><linearGradient id="uuid-ee323c05-9b34-4d9d-a251-fd23bc15e285" x1="135.37" y1="489.05" x2="300.91" y2="55.29" xlink:href="#uuid-515721c8-486a-4bad-9488-aba60cf73060"/><linearGradient id="uuid-5b9cad4a-9531-4111-af27-4e0907a19bd4" x1="145.21" y1="492.81" x2="310.75" y2="59.05" xlink:href="#uuid-515721c8-486a-4bad-9488-aba60cf73060"/><linearGradient id="uuid-103192d2-0e5e-4f7e-bf80-90d856579aa8" x1="156.84" y1="497.25" x2="322.38" y2="63.49" xlink:href="#uuid-515721c8-486a-4bad-9488-aba60cf73060"/><clipPath id="uuid-5f554d3e-d4e5-4411-bf83-9d08aa364ee5"><path class="uuid-d946c397-e2d0-441d-84b7-28f9c38c02be" d="M169.54,404.8c52.27,0,62.39-26.52,62.39-26.52,0-32.59,50.86-90.18,50.86-90.18l-.02-.02c31.83-30.44,51.66-73.34,51.66-120.87,0-62.05-33.8-116.21-83.99-145.07-2.33-1.34-4.7-2.63-7.11-3.86-1.2-.62-2.41-1.22-3.63-1.8-6.09-2.94-12.39-5.51-18.86-7.7-1.3-.44-2.6-.86-3.91-1.27-15.71-4.89-32.41-7.52-49.73-7.52h0c-17.32,0-34.02,2.63-49.73,7.52-1.31,.41-2.61,.83-3.91,1.27-6.48,2.19-12.77,4.77-18.86,7.7-1.22,.59-2.43,1.19-3.63,1.8-2.4,1.23-4.77,2.52-7.11,3.86C33.8,51.01,0,105.17,0,167.22c0,47.53,19.83,90.42,51.66,120.87l-.02,.02s50.86,57.59,50.86,90.18c0,0,10.12,26.52,62.39,26.52h4.64Z"/></clipPath></defs><path class="uuid-c0ed2101-780a-427d-8866-a329285276b9" d="M169.54,404.8c52.27,0,62.39-26.52,62.39-26.52,0-32.59,50.86-90.18,50.86-90.18l-.02-.02c31.83-30.44,51.66-73.34,51.66-120.87,0-62.05-33.8-116.21-83.99-145.07-2.33-1.34-4.7-2.63-7.11-3.86-1.2-.62-2.41-1.22-3.63-1.8-6.09-2.94-12.39-5.51-18.86-7.7-1.3-.44-2.6-.86-3.91-1.27-15.71-4.89-32.41-7.52-49.73-7.52h0c-17.32,0-34.02,2.63-49.73,7.52-1.31,.41-2.61,.83-3.91,1.27-6.48,2.19-12.77,4.77-18.86,7.7-1.22,.59-2.43,1.19-3.63,1.8-2.4,1.23-4.77,2.52-7.11,3.86C33.8,51.01,0,105.17,0,167.22c0,47.53,19.83,90.42,51.66,120.87l-.02,.02s50.86,57.59,50.86,90.18c0,0,10.12,26.52,62.39,26.52h4.64Z"/><g><path class="uuid-f6a60cb6-dd8f-44cb-9de7-9e0daa0af60a" d="M167.22,437.25c-13.5,.18-27.25-3.02-39.83-6.81-7.74-2.33-16.62-8.44-20.8-12.03-.23-2.66-.45-5.38-.65-8.08-.35-4.75-.69-9.11-1.03-13.14,3.53,3.73,11.38,9.8,19.26,12.41,13.69,4.53,28.52,8.04,43.05,7.84,14.52,.2,29.35-3.31,43.05-7.84,7.88-2.61,15.73-8.68,19.26-12.41-.34,4.03-.68,8.39-1.03,13.14-.2,2.7-.42,5.43-.65,8.08-4.18,3.59-13.06,9.7-20.8,12.03-12.58,3.79-26.33,6.99-39.83,6.81Z"/><path class="uuid-2c9db22d-e1db-41e5-814f-0305be4514a8" d="M167.22,467.9c-13.03,.14-26.29-2.92-38.43-6.36-5.1-1.44-10.81-4.48-15.25-7.3-2.02-4.81-3.58-9.59-4.53-14.17-.32-1.53-.75-4.86-1.22-9.16,3.78,3.36,10.92,8.21,17.92,10.32,13.2,3.98,27.51,7.24,41.51,7.06,14,.19,28.31-3.08,41.51-7.06,7-2.11,14.13-6.96,17.92-10.32-.47,4.3-.9,7.63-1.22,9.16-.95,4.58-2.5,9.37-4.53,14.17-4.44,2.83-10.15,5.86-15.25,7.3-12.14,3.44-25.41,6.5-38.43,6.36Z"/><path class="uuid-9576f59d-d5a9-4e33-a3aa-2ead14d8b2c4" d="M167.22,505.69c-4.27-.29-8.75-1.1-11.53-2.32-11.65-5.12-24.46-18.29-33.87-33.32,1.76,.78,3.56,1.46,5.34,1.96,12.74,3.61,26.55,6.73,40.06,6.58,13.51,.15,27.32-2.97,40.06-6.58,1.78-.5,3.58-1.18,5.34-1.96-9.42,15.04-22.22,28.21-33.87,33.32-2.78,1.22-7.27,2.03-11.53,2.32Z"/></g><g class="uuid-ef00a4e1-668b-4000-aa62-765eb05c1061"><g><path class="uuid-9b6e0d80-72f3-4bc3-a737-e3dac601da61" d="M448.43,86.39c-6.72-.02-13.43-.07-20.15,.03-2.17,.03-3.76-.6-5.19-2.27-4.72-5.52-10.8-7.91-18.07-7.79-9.71,.16-19.42,0-29.13,.07-1.85,.01-3.23-.49-4.52-1.89-2.65-2.86-5.41-5.64-8.3-8.25-3.98-3.6-8.75-5.43-14.15-5.45-9.98-.04-19.96-.11-29.94,.03-1.44,.02-3.18,.76-4.24,1.75-3.99,3.7-7.69,7.71-11.65,11.44-.93,.88-2.47,1.51-3.76,1.55-5.8,.17-11.62,.01-17.42,.15-1.12,.03-2.48,.59-3.29,1.36-3.69,3.49-7.28,7.08-10.79,10.76-1.29,1.35-2.61,1.95-4.5,1.93-8.8-.07-17.61,.02-26.41,0-3.81,0-8.05,.91-11.29-.48-3.34-1.43-5.7-5.15-8.49-7.88-.13-.13-.25-.26-.38-.39-3.5-3.53-7.74-5.29-12.7-5.3-3.81,0-7.62-.06-11.43,.08-.98,.03-2.18,.44-2.87,1.1-4.76,4.61-9.52,9.22-14.05,14.05-4.59,4.89-4.12,12.23,.68,16.9,1.49,1.45,2.62,1.54,4.09,0,2.94-3.09,5.99-6.07,9.01-9.08,1.89-1.89,3.82-3.74,5.46-5.34,1.48,1.29,2.69,2.35,4.37,3.82-1.78,1.57-3.34,3.08-5.04,4.42-4.37,3.44-7.22,7.51-6.05,13.43,.05,.23-.12,.51-.28,1.1h-2.87c-5.9,0-11.8-.09-17.7,.07-1.29,.04-2.8,.68-3.78,1.54-2.65,2.33-5.19,4.82-7.53,7.46-.86,.97-1.32,2.5-1.47,3.83-.24,2.1-.06,4.25-.06,7.02-7.67-2.67-11.82,1.87-15.9,6.54-.18,.2-.38,.39-.57,.59-2.59,2.68-3.76,5.89-3.79,9.61-.05,5.35,3.14,8.85,6.64,12.28,1.59,1.56,2.72,1.66,4.29,.03,3.78-3.91,7.67-7.72,11.54-11.55,2-1.98,8.75-2.06,10.74-.11,2.85,2.79,5.54,5.76,8.52,8.4,1.09,.97,2.78,1.65,4.24,1.73,4.16,.23,8.35-.06,12.52,.13,2.3,.11,4.17-.42,5.44-2.3,2.48-3.69,5.97-4.69,10.12-4.07,1.29,.19,2.93,.15,3.77,.91,4.35,3.96,8.53,8.12,12.65,12.31,.4,.41,.38,1.9-.03,2.35-2.5,2.73-5.14,5.33-7.79,7.92-.56,.54-1.3,1.22-1.98,1.25-3.42,.18-6.85,.25-10.27,.2-4.61-.07-9.23-.5-13.84-.36-2.9,.09-4.94-.77-6.82-2.93-4.31-4.94-9.8-7.22-16.42-7-5.26,.18-10.53-.07-15.79,.08-1.21,.03-2.71,.59-3.56,1.42-7.01,6.85-13.94,13.77-20.77,20.8-.95,.98-1.64,2.65-1.66,4.01-.13,6.89,.06,13.79,0,20.69-.02,1.97,.6,3.39,2,4.77,6.67,6.55,13.29,13.15,19.82,19.83,1.4,1.43,2.84,1.98,4.79,1.95,6.99-.09,13.97,0,20.96-.07,1.76-.02,2.38,.54,2.33,2.35-.12,4.26,.18,8.54-.09,12.79-.61,9.71,2.42,17.79,9.8,24.28,1.03,.91,1.67,2.77,1.71,4.22,.17,6.89,0,13.79,.1,20.69,.09,6.81,2.83,12.27,8.63,16.05,5.56,3.63,11.79,2.98,17.94,2.74,.59-.02,1.2-.75,1.7-1.25,6.24-6.2,12.43-12.45,18.71-18.62,1.53-1.5,2.18-3.09,2.17-5.27-.09-14.16-.08-28.32,.02-42.47,0-1.27,.66-2.82,1.54-3.74,4.25-4.47,8.68-8.78,13.03-13.14,6.46-6.48,6.45-13.6,0-20-6.44-6.39-12.84-12.81-19.28-19.2-2.27-2.26-4.6-4.47-7.02-6.81,1.18-1.25,2.04-2.15,2.95-3.12,1.37,.98,2.78,1.71,3.82,2.79,4.15,4.29,8.06,8.8,12.28,13,4.72,4.69,10.48,6.13,17.03,4.84,6.19-1.21,9.76-5.96,13.95-9.92,1.62-1.54,1.48-2.81-.12-4.32-2.96-2.8-5.77-5.77-8.69-8.62-3.55-3.48-7.14-6.91-10.85-10.49,1.1-1.03,1.79-1.67,2.66-2.48,.72,.83,1.3,1.41,1.78,2.06,4.55,6.15,10.39,9.12,18.2,7.88,1.15-.18,2.8,.67,3.73,1.55,5,4.75,9.9,9.6,14.7,14.55,1.75,1.8,2.95,1.78,4.68,0,6.09-6.23,12.3-12.34,18.47-18.5,1.84-1.83,3.69-3.65,5.56-5.49,1.01,.92,1.77,1.55,2.47,2.26,7.32,7.31,14.62,14.64,21.96,21.93,.68,.68,1.52,1.51,2.38,1.65,8.03,1.23,14.45-3.48,14.81-11.47,.08-1.9-.15-3.83,.1-5.71,.16-1.23,.64-2.64,1.46-3.53,2.82-3.08,5.83-5.98,8.8-8.91,3.35-3.31,4.87-7.35,4.87-12.01v-4.6c5.18,0,9.97,.09,14.75-.05,1.5-.04,3.44-.23,4.41-1.15,6.17-5.88,12.17-11.95,18.15-18.04,4.52-4.61,6.84-10.17,6.8-16.68-.03-3.61,0-7.23,0-10.88,.63-.22,.8-.33,.97-.33,6.08-.02,12.16,.02,18.24-.1,1.07-.02,2.41-.38,3.15-1.08,3.82-3.62,7.5-7.38,11.17-11.15,.53-.54,1-1.32,1.11-2.05,1.1-7.86-3.99-13.62-12-13.64Z"/><path class="uuid-9b6e0d80-72f3-4bc3-a737-e3dac601da61" d="M45.38,235.75c-.04-4.31-1.52-7.97-4.98-10.71-2.7-2.14-5.81-2.93-9.17-2.7-2.51,.17-4.4-.49-6.19-2.46-3.47-3.83-7.3-7.32-10.9-11.03-3.35-3.46-7.37-5.12-12.18-5.07-5.17,.05-10.35,.11-15.51-.08-1.36-.05-2.98-.71-3.98-1.63-3.91-3.65-7.72-7.43-11.39-11.32-4.72-4.99-10.42-7.39-17.25-7.2-.79,.02-1.59-.09-2.54-.15v-13.45c5.69,0,11.21,.02,16.73,0,6.57-.04,12.23-2.38,16.88-7.01,13.69-13.64,27.36-27.3,41.02-40.97,.49-.49,1.08-1.12,1.17-1.75,1.41-9.41-3.92-15.27-11.59-15.63-1.63-.08-3.3,.19-4.89-.07-1.32-.22-2.78-.72-3.76-1.57-2.39-2.08-4.47-4.51-6.79-6.67-2.26-2.09-5.32-2.04-6.92,.25-.76,1.09-1.07,2.69-1.09,4.06-.12,5.78-.05,11.57-.05,17.66-4.89,0-9.58,.02-14.27-.03-.48,0-1.06-.31-1.43-.66-4.44-4.25-8.84-8.54-13.75-13.3,2.92-2.7,5.49-4.97,7.95-7.37,3.42-3.34,3.99-7.72,1.64-11.94-2.4-4.33-6.29-5.58-10.99-5.57-29.85,.08-59.7,.3-89.55-.02-9.39-.1-17.22,2.72-24.22,8.57-.68,.57-1.38,1.58-1.39,2.4-.11,6.99-.1,13.97,0,20.96,0,.75,.6,1.91,1.19,2.13,.6,.22,1.73-.3,2.3-.83,2.45-2.29,4.89-4.62,7.13-7.1,3.13-3.47,6.85-5.24,11.56-4.89,1.53,.12,3.12-.19,4.62,.08,1.31,.24,2.81,.71,3.73,1.6,5.48,5.28,10.86,10.68,16.17,16.14,.78,.8,1.33,2.18,1.36,3.3,.15,5.44,.14,10.89,.07,16.33-.12,9.21,3.16,16.98,9.64,23.46,8.59,8.59,17.39,16.99,25.69,25.86,6.77,7.22,14.52,11.26,24.56,10.42,.82-.07,1.92,.12,2.5,.63,3.04,2.7,5.95,5.55,9.39,8.82-2.75,2.53-5.11,4.63-7.39,6.81-3.03,2.91-4.52,6.48-4.48,10.72,.05,5.54,0,11.07,0,16.61,.01,6.79,2.49,12.51,7.41,17.21,2.82,2.69,5.42,5.62,8.32,8.23,1.88,1.69,2.34,3.63,2.33,6-.07,14.43-.07,28.86-.06,43.29,0,1.72,.09,3.46,.37,5.15,1.75,10.37,7.9,17.47,16.86,22.42,.93,.51,2.25,.95,3.15,.66,.52-.17,.79-1.84,.79-2.84,.06-12.34,0-24.68,.13-37.02,.01-1.26,.66-2.83,1.54-3.73,15.59-15.72,31.21-31.41,46.97-46.96,2.59-2.56,3.96-5.1,3.59-8.79-.3-3.06-.02-6.17-.05-9.25Z"/><path class="uuid-9b6e0d80-72f3-4bc3-a737-e3dac601da61" d="M91.23,77.25c.15-4.35,.09-8.7,.06-13.05-.06-8.09-5.61-13.56-13.77-13.59-5.89-.02-11.79,0-17.68,0h-10.34q-10.89,0-18.35,7.88c-4.61,4.87-4.53,11,.19,15.71,2.69,2.69,5.25,5.53,8.11,8.04,2.21,1.94,2.8,4.13,2.64,6.95-.35,6.49,1.77,12.1,6.53,16.65,1.77,1.69,3.48,3.44,5.19,5.19,2.57,2.63,2.8,2.67,5.39,.08,10.27-10.24,20.53-20.48,30.73-30.79,.73-.74,1.26-2.01,1.29-3.05Z"/><path class="uuid-9b6e0d80-72f3-4bc3-a737-e3dac601da61" d="M4.57,92.4c2.35,2.32,5.27,3.48,8.11,3.48,3.8,.07,6.72-.95,9.25-3.1,1.26-1.07,1.57-2.16,.29-3.44-6.75-6.71-13.35-13.58-20.29-20.09-4.61-4.33-11.59-4.16-16.51-.27-1.67,1.32-1.81,2.5-.29,4.02,6.49,6.46,12.92,12.98,19.43,19.41Z"/><path class="uuid-9b6e0d80-72f3-4bc3-a737-e3dac601da61" d="M260.96,270.14c-7.62-.95-14.42,4.24-15.14,11.78-.42,4.39-.16,8.85-.16,13.27,0,1.44,.64,2.29,2.26,2.46,7.3,.77,14.19-4.56,14.99-11.86,.25-2.32,.04-4.69,.04-7.04,.04,0,.08,0,.13,0,0-2.17,.19-4.37-.1-6.5-.11-.81-1.24-2.02-2.01-2.11Z"/><path class="uuid-9b6e0d80-72f3-4bc3-a737-e3dac601da61" d="M146.93,130.01c1.8,.15,2.76-.47,2.72-2.4-.05-2.35-.01-4.7-.01-7.05h-.03c0-2.35,.11-4.71-.02-7.05-.3-5.26-4.39-9.04-9.59-9.13-1.6-.03-2.37,.42-2.36,2.1,.03,4.7-.16,9.41,.03,14.1,.2,4.93,4.42,9.03,9.27,9.43Z"/><path class="uuid-9b6e0d80-72f3-4bc3-a737-e3dac601da61" d="M97.03,95.5c-2.39-1.9-5.67-1.77-8.05,.22-1.59,1.33-3.13,2.79-4.4,4.43-.47,.6-.41,2.07,0,2.78,.67,1.14,1.75,2.1,2.83,2.91,1.73,1.3,3.6,2.43,5.41,3.63,2.78-.66,8.88-4.99,9.53-7.25,.17-.58-.06-1.52-.46-1.96-1.53-1.67-3.09-3.34-4.86-4.75Z"/><path class="uuid-9b6e0d80-72f3-4bc3-a737-e3dac601da61" d="M135.28,121.45c.15-.47,.18-1.21-.08-1.55-1.93-2.43-3.95-4.79-7.39-4.96-2.5-.13-6.56,2.52-7.64,4.99-.19,.44-.22,1.07-.06,1.52,.8,2.22,5.11,5.24,7.45,5.3,2.28,.07,7.04-3.15,7.73-5.3Z"/></g></g></svg>